<?xml version="1.0" standalone="no"?>
<!DOCTYPE svg PUBLIC "-//W3C//DTD SVG 20010904//EN"
 "http://www.w3.org/TR/2001/REC-SVG-20010904/DTD/svg10.dtd">
<svg version="1.0" xmlns="http://www.w3.org/2000/svg"
 width="173.000000pt" height="173.000000pt" viewBox="0 0 173.000000 173.000000"
 preserveAspectRatio="xMidYMid meet">
<metadata>
Created by potrace 1.14, written by Peter Selinger 2001-2017
</metadata>
<g transform="translate(0.000000,173.000000) scale(0.100000,-0.100000)"
fill="#000000" stroke="none">
<path d="M724 1541 c5 -7 -9 -11 -43 -11 -35 0 -61 -7 -85 -22 -19 -13 -53
-34 -75 -47 -22 -13 -37 -29 -34 -36 2 -7 -1 -16 -8 -21 -8 -5 -10 -3 -5 7 4
8 1 6 -7 -4 -27 -32 -38 -132 -23 -190 23 -86 43 -123 86 -159 22 -19 37 -38
33 -41 -3 -4 -26 -7 -51 -7 -52 0 -108 -24 -124 -54 -16 -28 -15 -184 0 -271
16 -82 69 -202 95 -211 16 -5 57 -75 57 -99 0 -6 16 -30 36 -53 40 -47 88 -65
174 -64 69 1 81 -6 85 -49 l2 -34 193 -3 c134 -2 198 -6 209 -15 14 -10 14
-10 4 3 -6 8 -12 20 -12 25 -1 6 -6 10 -11 10 -6 0 -14 5 -18 10 -4 6 -20 19
-35 28 -20 13 -27 23 -21 35 3 9 6 30 5 46 l-2 30 22 -20 22 -19 -20 30 c-17
24 -22 52 -28 143 -4 79 -3 112 4 107 14 -8 14 6 -3 83 l-13 62 26 6 c56 13
68 17 114 46 30 20 49 40 53 57 8 34 53 81 77 81 28 0 14 25 -16 28 -23 3 -27
8 -27 38 0 19 -2 34 -5 34 -4 0 -23 -16 -43 -36 -20 -20 -54 -45 -74 -55 -21
-11 -38 -23 -38 -27 0 -19 -65 -42 -121 -42 -63 0 -115 24 -168 78 -16 16 -26
20 -31 13 -8 -13 -37 15 -40 39 -5 34 -1 43 14 31 12 -10 14 -9 9 7 -3 13 8
32 32 58 84 88 90 101 90 183 0 69 -3 81 -32 125 -18 27 -30 53 -26 59 3 6 1
7 -5 3 -7 -4 -12 -3 -12 3 0 15 -98 71 -126 71 -14 0 -35 5 -46 11 -15 8 -19
8 -14 0z"/>
<path d="M958 1429 c12 -14 22 -32 22 -40 0 -8 5 -21 11 -29 8 -11 9 -8 4 15
-3 17 -18 41 -33 55 l-26 25 22 -26z"/>
</g>
</svg>
